<svg width="39" height="36" viewBox="0 0 39 36" fill="none" xmlns="http://www.w3.org/2000/svg">
<path fill-rule="evenodd" clip-rule="evenodd" d="M7.88016 3.19765C9.00642 0.159588 13.901 0.129745 15.0755 3.15377L16.5432 6.93305H17.064L18.4488 3.19765C19.5751 0.159588 24.4697 0.129745 25.6441 3.15377L27.1164 6.94467C29.213 7.07287 31.0143 8.13939 31.9767 9.66799H32.8649C36.197 9.66799 38.8981 12.034 38.8981 14.9527V20.4794C38.8981 24.2372 36.3752 27.4759 32.7357 28.9718V31.7774C32.7357 34.0763 30.6081 35.9399 27.9835 35.9399H10.3446C7.7201 35.9399 5.59249 34.0763 5.59249 31.7774V29.1421C2.29916 27.8634 0 24.9755 0 21.6144V15.1633C0 11.5573 2.64624 8.49558 6.329 7.38188L7.88016 3.19765ZM29.4868 11.4369L29.492 11.4512C29.5779 11.6929 29.6242 11.9499 29.6242 12.2164V17.0316C29.6242 17.7812 30.318 18.3889 31.1737 18.3889C32.0295 18.3889 32.7233 17.7812 32.7233 17.0316V12.3825H32.8649C34.4854 12.3825 35.7991 13.5332 35.7991 14.9527V20.4794C35.7991 23.3939 33.6614 25.8746 30.6799 26.7774L29.6367 27.0933V31.7774C29.6367 32.5771 28.8965 33.2254 27.9835 33.2254H10.3446C9.43164 33.2254 8.69152 32.5771 8.69152 31.7774V27.1892L7.58641 26.8994C4.98921 26.2183 3.09903 24.1079 3.09903 21.6144V15.1633C3.09903 12.5657 5.15052 10.3844 7.91363 9.80098L8.75649 9.62301L10.8277 4.03604C11.0333 3.48128 11.9271 3.47582 12.1416 4.02803L14.3241 9.64761H19.316L21.3963 4.03604C21.602 3.48128 22.4958 3.47582 22.7102 4.02803L24.8927 9.64761H26.6901C27.9976 9.64761 29.1092 10.3977 29.4868 11.4369Z" fill="#808BB4"/>
</svg>
